<svg xmlns="http://www.w3.org/2000/svg" viewBox="0 0 74.44 55.47"><defs><style>.cls-1,.cls-2,.cls-3{fill:#fcc00e;}.cls-1{opacity:0.18;}.cls-2{opacity:0.33;}.cls-4{fill:#fff;}</style></defs><title>cloudy</title><g id="Calque_2" data-name="Calque 2"><g id="Calque_1-2" data-name="Calque 1"><circle class="cls-1" cx="44.49" cy="27.73" r="27.73"/><circle class="cls-2" cx="45.99" cy="27.17" r="24.88"/><circle class="cls-3" cx="45.99" cy="27.17" r="20.55"/><path id="_Tracé_" data-name="&lt;Tracé&gt;" class="cls-4" d="M72.9,35.29a2.42,2.42,0,0,0-3.14,1.16,1.37,1.37,0,0,0-2,.35A1.26,1.26,0,0,0,67,35.22a1.3,1.3,0,0,0-1.64.74A8.76,8.76,0,0,0,66,32.81a4.42,4.42,0,0,0-1.07-3,3,3,0,0,0-2.91-1,2.17,2.17,0,0,0-1.71,2.28A1.94,1.94,0,0,0,58,30.78a2,2,0,0,0-1,2,.89.89,0,0,0-.84-.4c-.33,0-.5.32-.6.63a3.62,3.62,0,0,0-.45-1.8,1.61,1.61,0,0,0-1.58-.79c-.62.11-1.14.73-.86,1.29A3.87,3.87,0,0,0,49,31.24a3.82,3.82,0,0,0-2.31,2.95,1.94,1.94,0,0,0-1-1.61,2,2,0,0,0-1.92-.07,1.08,1.08,0,0,0-1.39-1.29,1.89,1.89,0,0,0-.64-1.93,1.73,1.73,0,0,0-.18-1.79,2,2,0,0,0-1.71-.81,2.68,2.68,0,0,0-1.46-2.55,2.83,2.83,0,0,0-3,.48,4,4,0,0,0-4.16-2.83,6.52,6.52,0,0,0-4.57,2.72,4.74,4.74,0,0,0-.95,4.83A1.35,1.35,0,0,0,24,30.56c-.4-.18-1,.45-.84.86a3.35,3.35,0,0,0-4.69,4.11,2,2,0,0,0-2-.57A2.1,2.1,0,0,0,15,36.63a1.27,1.27,0,0,0-1.27-.17A1.54,1.54,0,0,0,13,37.68C12.34,35,8.88,34,6.31,34.85S1.7,38.1,0,40.23H3a35.71,35.71,0,0,0,12.86.85,1.74,1.74,0,0,0,2.07,0,3.84,3.84,0,0,1,.75-.54c.51-.18,1,.15,1.52.36a3.64,3.64,0,0,0,3.73-.59,6.68,6.68,0,0,0,7.77.88c.4.44,1.49.32,2.08.2A11.92,11.92,0,0,1,35.52,41a8.49,8.49,0,0,1,2,.35A2.22,2.22,0,0,0,39.42,41a7.87,7.87,0,0,0,7.12,0,4.31,4.31,0,0,0,3.53-.11,1.8,1.8,0,0,0,2.33.22,1.43,1.43,0,0,0,1.73,0,10.63,10.63,0,0,0,9.53-.17,7.43,7.43,0,0,0,6.26.5,2.85,2.85,0,0,0,1-.62,1.44,1.44,0,0,0,1.13.06A3.52,3.52,0,0,0,74.4,38.3,2.77,2.77,0,0,0,72.9,35.29Z"/></g></g></svg>