<svg xmlns="http://www.w3.org/2000/svg" viewBox="0 0 30 29.27"><defs><style>.cls-1{fill:#fff;}</style></defs><title>git</title><g id="Calque_2" data-name="Calque 2"><g id="Calque_2-2" data-name="Calque 2"><path class="cls-1" d="M28,7.47A14.89,14.89,0,0,0,22.53,2,14.69,14.69,0,0,0,15,0,14.69,14.69,0,0,0,7.47,2,14.89,14.89,0,0,0,2,7.47,14.69,14.69,0,0,0,0,15a14.56,14.56,0,0,0,2.86,8.82,14.75,14.75,0,0,0,7.39,5.42A.86.86,0,0,0,11,29.1a.77.77,0,0,0,.26-.58s0-.4,0-1.06,0-1.24,0-1.74l-.45.08a6.58,6.58,0,0,1-1.08.07,8.15,8.15,0,0,1-1.36-.14,3,3,0,0,1-1.31-.58A2.54,2.54,0,0,1,6.21,24L6,23.5a4.8,4.8,0,0,0-.62-1,2.36,2.36,0,0,0-.85-.74l-.14-.1a1.79,1.79,0,0,1-.25-.23A1.31,1.31,0,0,1,4,21.15c0-.09,0-.16.1-.22a1.26,1.26,0,0,1,.57-.09L5,20.9a2.89,2.89,0,0,1,1,.47,3.14,3.14,0,0,1,.94,1A3.35,3.35,0,0,0,8,23.6,2.29,2.29,0,0,0,9.32,24a5.93,5.93,0,0,0,1.11-.09,4.35,4.35,0,0,0,.88-.3,3.18,3.18,0,0,1,.95-2,14.75,14.75,0,0,1-2-.35,8.19,8.19,0,0,1-1.83-.76A5.35,5.35,0,0,1,6.85,19.2a6.54,6.54,0,0,1-1-2.05,9.7,9.7,0,0,1-.4-2.93,5.7,5.7,0,0,1,1.54-4,5.26,5.26,0,0,1,.14-4,2.73,2.73,0,0,1,1.68.26,12.62,12.62,0,0,1,1.63.76c.34.2.62.38.83.52a14.31,14.31,0,0,1,7.5,0l.74-.47a10.81,10.81,0,0,1,1.8-.85,2.48,2.48,0,0,1,1.58-.22,5.18,5.18,0,0,1,.16,4,5.7,5.7,0,0,1,1.54,4,9.82,9.82,0,0,1-.4,2.94,6.24,6.24,0,0,1-1,2.05,5.66,5.66,0,0,1-1.59,1.3,8.19,8.19,0,0,1-1.83.76,13.34,13.34,0,0,1-2,.35,3.5,3.5,0,0,1,1,2.77v4.12a.79.79,0,0,0,.24.59.87.87,0,0,0,.78.14,14.75,14.75,0,0,0,7.39-5.42A14.56,14.56,0,0,0,30,15,14.69,14.69,0,0,0,28,7.47Z"/></g></g></svg>