<svg xmlns="http://www.w3.org/2000/svg" viewBox="0 0 452.13 116.26"><defs><style>.cls-1{fill:#fff;}</style></defs><title>logo-mete-fiable</title><g id="Calque_2" data-name="Calque 2"><g id="Calque_1-2" data-name="Calque 1"><path class="cls-1" d="M-91.38-194.85h-1.9v-25.31A17.65,17.65,0,0,0-94-225.8a8.83,8.83,0,0,0-2.16-3.55,7.69,7.69,0,0,0-3.31-1.85,15.69,15.69,0,0,0-4.16-.53,11.32,11.32,0,0,0-5.52,1.3,13.84,13.84,0,0,0-4,3.26,17,17,0,0,0-2.56,4.18,19.36,19.36,0,0,0-1.3,4.1v24H-119v-38H-117v9a18.65,18.65,0,0,1,2.12-3.81,14.66,14.66,0,0,1,3-3.08,14.57,14.57,0,0,1,3.81-2.05,13.08,13.08,0,0,1,4.52-.76,13.38,13.38,0,0,1,7.82,2.11c2,1.41,3.36,3.7,4,6.89a14.08,14.08,0,0,1,2.1-3.53A14.11,14.11,0,0,1-86.56-231a15.33,15.33,0,0,1,4-1.92,15.65,15.65,0,0,1,4.78-.7,15.52,15.52,0,0,1,5.15.79,9.23,9.23,0,0,1,3.83,2.5,11.26,11.26,0,0,1,2.39,4.37,22.16,22.16,0,0,1,.83,6.47v24.61h-1.9v-24.61a19.7,19.7,0,0,0-.78-6,9.22,9.22,0,0,0-2.16-3.78,7.74,7.74,0,0,0-3.3-1.95,14.27,14.27,0,0,0-4.17-.53,14.44,14.44,0,0,0-4.09.62,13.56,13.56,0,0,0-3.33,1.53,12.3,12.3,0,0,0-2.56,2.16,15.35,15.35,0,0,0-1.85,2.48,13.19,13.19,0,0,0-1.18,2.51,9.31,9.31,0,0,0-.49,2.27Z" transform="translate(210 310)"/><path class="cls-1" d="M-40.37-194.14a15.16,15.16,0,0,1-6.5-1.41,16.4,16.4,0,0,1-5.29-3.92,18.69,18.69,0,0,1-3.57-6,21.4,21.4,0,0,1-1.3-7.61v-1.55a22.39,22.39,0,0,1,1.26-7.64,19.15,19.15,0,0,1,3.43-6,15.46,15.46,0,0,1,5.06-3.92,14.06,14.06,0,0,1,6.21-1.41,14.12,14.12,0,0,1,5.82,1.18,13.22,13.22,0,0,1,4.57,3.32,15.48,15.48,0,0,1,3,5.13,19.58,19.58,0,0,1,1.07,6.61v2.22H-55.13v2.07A19.4,19.4,0,0,0-54-206.4,17.19,17.19,0,0,0-50.9-201a14.88,14.88,0,0,0,4.7,3.64A13,13,0,0,0-40.37-196a20.3,20.3,0,0,0,3.15-.24,12.66,12.66,0,0,0,2.93-.85,12.36,12.36,0,0,0,2.71-1.6,13.79,13.79,0,0,0,2.5-2.55l1.33.95a14.43,14.43,0,0,1-2.18,2.5,12.93,12.93,0,0,1-2.79,1.93,15.57,15.57,0,0,1-3.46,1.27A18.17,18.17,0,0,1-40.37-194.14Zm-.7-37.55a12.33,12.33,0,0,0-5.29,1.12,13.48,13.48,0,0,0-4.24,3.11,16.28,16.28,0,0,0-3,4.66A19.73,19.73,0,0,0-55-217h26.51v-.46a16.37,16.37,0,0,0-.9-5.43,14.27,14.27,0,0,0-2.53-4.54,12.06,12.06,0,0,0-3.95-3.09A11.57,11.57,0,0,0-41.07-231.69Zm6.15-16.42h2.32l-6.85,9.35h-2.11Z" transform="translate(210 310)"/><path class="cls-1" d="M-13.51-243.15v10.26h8.65v1.94h-8.65v27a14.43,14.43,0,0,0,.46,4,6,6,0,0,0,1.25,2.41A3.9,3.9,0,0,0-10-196.34a7.83,7.83,0,0,0,2.19.3,18.61,18.61,0,0,0,1.94-.09c.56-.06,1.17-.14,1.82-.23l.32,1.79a3.7,3.7,0,0,1-.91.21l-1.09.13c-.38,0-.74.06-1.09.07l-.88,0a10.94,10.94,0,0,1-3.27-.46,5.39,5.39,0,0,1-2.44-1.58,7.45,7.45,0,0,1-1.53-3,17.61,17.61,0,0,1-.53-4.74v-27h-7v-1.94h7v-10.26Z" transform="translate(210 310)"/><path class="cls-1" d="M18.7-194.14a15.21,15.21,0,0,1-6.51-1.41,16.51,16.51,0,0,1-5.29-3.92,18.69,18.69,0,0,1-3.57-6A21.4,21.4,0,0,1,2-213.06v-1.55a22.15,22.15,0,0,1,1.27-7.64,18.94,18.94,0,0,1,3.42-6,15.5,15.5,0,0,1,5.07-3.92,14,14,0,0,1,6.2-1.41,14.12,14.12,0,0,1,5.82,1.18,13.22,13.22,0,0,1,4.57,3.32,15.48,15.48,0,0,1,3,5.13,19.58,19.58,0,0,1,1.07,6.61v2.22H3.93v2.07a19.4,19.4,0,0,0,1.12,6.66A17,17,0,0,0,8.17-201a14.73,14.73,0,0,0,4.69,3.64A13,13,0,0,0,18.7-196a20.27,20.27,0,0,0,3.14-.24,12.88,12.88,0,0,0,2.94-.85,12.3,12.3,0,0,0,2.7-1.6,13.79,13.79,0,0,0,2.5-2.55l1.34.95a14.87,14.87,0,0,1-2.18,2.5,13,13,0,0,1-2.8,1.93,15.57,15.57,0,0,1-3.46,1.27A18.14,18.14,0,0,1,18.7-194.14ZM18-231.69a12.36,12.36,0,0,0-5.29,1.12,13.6,13.6,0,0,0-4.24,3.11,16.72,16.72,0,0,0-3,4.66A19.72,19.72,0,0,0,4-217h26.5v-.46a16.62,16.62,0,0,0-.89-5.43,14.46,14.46,0,0,0-2.53-4.54,12,12,0,0,0-4-3.09A11.57,11.57,0,0,0,18-231.69Zm6.15-16.42h2.32l-6.85,9.35H17.5Z" transform="translate(210 310)"/><path class="cls-1" d="M38.42-214.61a23.13,23.13,0,0,1,1.21-7.66,18,18,0,0,1,3.41-6,15.4,15.4,0,0,1,5.26-3.92,15.94,15.94,0,0,1,6.75-1.41,16.13,16.13,0,0,1,6.8,1.41,15.22,15.22,0,0,1,5.26,3.92,18.15,18.15,0,0,1,3.39,6,23.13,23.13,0,0,1,1.21,7.66v1.48a23.62,23.62,0,0,1-1.19,7.66,17.71,17.71,0,0,1-3.4,6,15.53,15.53,0,0,1-5.25,3.92,15.94,15.94,0,0,1-6.75,1.41,16.18,16.18,0,0,1-6.81-1.41A15.61,15.61,0,0,1,43-199.47a18.07,18.07,0,0,1-3.41-6,23.09,23.09,0,0,1-1.21-7.66Zm1.9,1.48a20.9,20.9,0,0,0,1,6.5,16.75,16.75,0,0,0,2.9,5.45,14,14,0,0,0,4.64,3.75A13.73,13.73,0,0,0,55.12-196a13.51,13.51,0,0,0,6.2-1.39,14,14,0,0,0,4.61-3.75,17.1,17.1,0,0,0,2.88-5.45,20.9,20.9,0,0,0,1-6.5v-1.48a20.51,20.51,0,0,0-1-6.41,17.06,17.06,0,0,0-2.9-5.45,14.39,14.39,0,0,0-4.64-3.8,13.29,13.29,0,0,0-6.22-1.42,13.33,13.33,0,0,0-6.23,1.42,14.21,14.21,0,0,0-4.62,3.8A17.43,17.43,0,0,0,41.32-221a20.51,20.51,0,0,0-1,6.41Z" transform="translate(210 310)"/><path class="cls-1" d="M82.38-194.44V-229H76.05v-3.44h6.33v-4a15.46,15.46,0,0,1,.88-5.43,10.74,10.74,0,0,1,2.51-4,10.58,10.58,0,0,1,4-2.44,15.73,15.73,0,0,1,5.26-.83,25.25,25.25,0,0,1,9.7,2.07l-.7,3.63a26.5,26.5,0,0,0-3.88-1.34,19.45,19.45,0,0,0-4.84-.53q-4.32,0-6.5,2.27c-1.46,1.51-2.18,3.71-2.18,6.59v4h8.89V-229H86.6v34.6Zm24.61,0h-4.22v-38H107Z" transform="translate(210 310)"/><path class="cls-1" d="M142.53-194.44a11.87,11.87,0,0,1-.54-2.41c-.13-1-.22-1.92-.27-2.9a14.85,14.85,0,0,1-2.25,2.32,14.54,14.54,0,0,1-2.92,1.9,17.5,17.5,0,0,1-3.55,1.3,16.81,16.81,0,0,1-4.18.49,14.88,14.88,0,0,1-5-.81,11.2,11.2,0,0,1-3.87-2.26,10.36,10.36,0,0,1-2.48-3.43,10.32,10.32,0,0,1-.88-4.29,10.42,10.42,0,0,1,1.2-5,10.72,10.72,0,0,1,3.44-3.8,16.84,16.84,0,0,1,5.47-2.39,29.08,29.08,0,0,1,7.22-.82h7.81v-4.33a8.33,8.33,0,0,0-2.52-6.42c-1.67-1.55-4.12-2.33-7.33-2.33a13.52,13.52,0,0,0-4.07.59,10.11,10.11,0,0,0-3.22,1.66,7.74,7.74,0,0,0-2.11,2.44,6.19,6.19,0,0,0-.76,3l-4.22,0a8.83,8.83,0,0,1,1.06-4.15,11.39,11.39,0,0,1,3-3.57,15.18,15.18,0,0,1,4.61-2.51,17.56,17.56,0,0,1,6-1,19,19,0,0,1,5.58.77,12.11,12.11,0,0,1,4.37,2.32,10.5,10.5,0,0,1,2.85,3.87,13.32,13.32,0,0,1,1,5.41v18.42c0,.66,0,1.34.07,2s.12,1.39.23,2,.23,1.28.37,1.88a9.74,9.74,0,0,0,.49,1.57v.42Zm-13.22-3a14.68,14.68,0,0,0,4.24-.58,13.35,13.35,0,0,0,3.53-1.59,12.39,12.39,0,0,0,2.74-2.38,11.84,11.84,0,0,0,1.87-2.93v-8.37h-7.21a25.92,25.92,0,0,0-5.78.58,14,14,0,0,0-4.31,1.67,7.94,7.94,0,0,0-2.69,2.65,6.8,6.8,0,0,0-.93,3.54,7.07,7.07,0,0,0,.6,2.9,6.91,6.91,0,0,0,1.7,2.35,8,8,0,0,0,2.69,1.58A10.21,10.21,0,0,0,129.31-197.47Z" transform="translate(210 310)"/><path class="cls-1" d="M187.71-213.07a30,30,0,0,1-1,7.84,18.46,18.46,0,0,1-2.83,6.1,13.37,13.37,0,0,1-4.57,4,13,13,0,0,1-6.15,1.42,15.11,15.11,0,0,1-7.16-1.58,13.78,13.78,0,0,1-4.87-4.32l-.17,5.2h-3.94v-54h4.18V-227a13.55,13.55,0,0,1,4.82-4.59,14.27,14.27,0,0,1,7.07-1.63,13.39,13.39,0,0,1,6.18,1.37,12.81,12.81,0,0,1,4.59,3.9,17.83,17.83,0,0,1,2.85,6.1,30.76,30.76,0,0,1,1,8Zm-4.22-.74a28.91,28.91,0,0,0-.63-6.19,15.38,15.38,0,0,0-2-5,9.89,9.89,0,0,0-3.46-3.32,10,10,0,0,0-5.07-1.22,12.68,12.68,0,0,0-4.22.65,10.92,10.92,0,0,0-3.16,1.74,10.88,10.88,0,0,0-2.25,2.5,15.13,15.13,0,0,0-1.48,2.92v17.15a14.62,14.62,0,0,0,1.67,2.83,10.79,10.79,0,0,0,2.38,2.29,11,11,0,0,0,3.14,1.51,13.74,13.74,0,0,0,4,.55,9.74,9.74,0,0,0,4.94-1.2,10.13,10.13,0,0,0,3.47-3.3,15.53,15.53,0,0,0,2-5,28.22,28.22,0,0,0,.65-6.2Z" transform="translate(210 310)"/><path class="cls-1" d="M201.7-194.44h-4.22v-54h4.22Z" transform="translate(210 310)"/><path class="cls-1" d="M227.86-193.74a16.66,16.66,0,0,1-6.86-1.39,16,16,0,0,1-5.4-3.86,17.85,17.85,0,0,1-3.53-5.89,21.49,21.49,0,0,1-1.27-7.49v-1.51a22.86,22.86,0,0,1,1.32-8,18.89,18.89,0,0,1,3.57-6.08,16,16,0,0,1,5.19-3.88,14.35,14.35,0,0,1,6.2-1.37,15.15,15.15,0,0,1,6.44,1.3,13.09,13.09,0,0,1,4.72,3.62,15.72,15.72,0,0,1,2.9,5.52,23.52,23.52,0,0,1,1,7v2.57H215v.81a17.79,17.79,0,0,0,.95,5.89,14.74,14.74,0,0,0,2.67,4.8,12.59,12.59,0,0,0,4.11,3.21,11.83,11.83,0,0,0,5.31,1.18,13.71,13.71,0,0,0,6-1.23,13.13,13.13,0,0,0,4.69-3.94l2.64,2a18.38,18.38,0,0,1-2.2,2.6,13.21,13.21,0,0,1-2.9,2.14,15.49,15.49,0,0,1-3.72,1.44A18.49,18.49,0,0,1,227.86-193.74Zm-.78-35.86a10.71,10.71,0,0,0-4.43.92,10.91,10.91,0,0,0-3.6,2.6,13.87,13.87,0,0,0-2.57,4.06,19.25,19.25,0,0,0-1.35,5.25H238v-.45a17.07,17.07,0,0,0-.78-4.63,12.47,12.47,0,0,0-2-4,10.25,10.25,0,0,0-3.36-2.76A10.09,10.09,0,0,0,227.08-229.6Z" transform="translate(210 310)"/><path class="cls-1" d="M-152.43-221.48a31,31,0,0,1-30.93-30.94,31,31,0,0,1,30.93-30.94,31,31,0,0,1,30.94,30.94A31,31,0,0,1-152.43-221.48Zm0-58.58a27.67,27.67,0,0,0-27.63,27.64,27.67,27.67,0,0,0,27.63,27.63,27.67,27.67,0,0,0,27.64-27.63A27.67,27.67,0,0,0-152.43-280.06Z" transform="translate(210 310)"/><path class="cls-1" d="M-152.43-293.54a1.65,1.65,0,0,1-1.65-1.65v-13.16a1.65,1.65,0,0,1,1.65-1.65,1.65,1.65,0,0,1,1.66,1.65v13.16A1.65,1.65,0,0,1-152.43-293.54Z" transform="translate(210 310)"/><path class="cls-1" d="M-152.43-194.85a1.65,1.65,0,0,1-1.65-1.65v-13.16a1.65,1.65,0,0,1,1.65-1.65,1.65,1.65,0,0,1,1.66,1.65v13.16A1.65,1.65,0,0,1-152.43-194.85Z" transform="translate(210 310)"/><path class="cls-1" d="M-195.19-250.77h-13.16a1.65,1.65,0,0,1-1.65-1.65,1.65,1.65,0,0,1,1.65-1.65h13.16a1.65,1.65,0,0,1,1.65,1.65A1.65,1.65,0,0,1-195.19-250.77Z" transform="translate(210 310)"/><path class="cls-1" d="M-96.5-250.77h-13.16a1.65,1.65,0,0,1-1.65-1.65,1.65,1.65,0,0,1,1.65-1.65H-96.5a1.65,1.65,0,0,1,1.65,1.65A1.65,1.65,0,0,1-96.5-250.77Z" transform="translate(210 310)"/><path class="cls-1" d="M-182.66-281a1.66,1.66,0,0,1-1.17-.48l-9.3-9.3a1.64,1.64,0,0,1,0-2.33,1.64,1.64,0,0,1,2.33,0l9.31,9.29a1.67,1.67,0,0,1,0,2.34A1.66,1.66,0,0,1-182.66-281Z" transform="translate(210 310)"/><path class="cls-1" d="M-192-211.23a1.64,1.64,0,0,1-1.16-.48,1.64,1.64,0,0,1,0-2.33l9.3-9.31a1.65,1.65,0,0,1,2.34,0,1.65,1.65,0,0,1,0,2.33l-9.31,9.31A1.66,1.66,0,0,1-192-211.23Z" transform="translate(210 310)"/><path class="cls-1" d="M-122.18-281a1.66,1.66,0,0,1-1.17-.48,1.65,1.65,0,0,1,0-2.34l9.3-9.29a1.65,1.65,0,0,1,2.34,0,1.65,1.65,0,0,1,0,2.33l-9.31,9.3A1.64,1.64,0,0,1-122.18-281Z" transform="translate(210 310)"/><path class="cls-1" d="M-153.47-235.3l-13.77-18.35a2,2,0,0,1,.4-2.8,2,2,0,0,1,2.8.4l10.24,13.65,14.46-23.5a2,2,0,0,1,2.75-.65,2,2,0,0,1,.66,2.75Z" transform="translate(210 310)"/></g></g></svg>