<svg xmlns="http://www.w3.org/2000/svg" viewBox="0 0 466.45 116.26"><defs><style>.cls-1{fill:#fff;}</style></defs><title>logo-mete-fiable_1</title><g id="Calque_2" data-name="Calque 2"><g id="Calque_1-2" data-name="Calque 1"><path class="cls-1" d="M94.68,77.11l.14,6.19A16.38,16.38,0,0,1,97,80.47a13.11,13.11,0,0,1,2.79-2.18,13.89,13.89,0,0,1,3.38-1.39,15,15,0,0,1,3.93-.49,14,14,0,0,1,7.18,1.76,9.67,9.67,0,0,1,4.25,5.62,15.49,15.49,0,0,1,2.2-2.93,13.9,13.9,0,0,1,2.92-2.34,14.94,14.94,0,0,1,3.6-1.55,15.6,15.6,0,0,1,4.25-.56,16.28,16.28,0,0,1,5.28.79,9.54,9.54,0,0,1,3.92,2.5A11.21,11.21,0,0,1,143.16,84a21,21,0,0,1,.84,6.33v24.78h-4.21V90.33a16.15,16.15,0,0,0-.67-5,7.7,7.7,0,0,0-1.9-3.16,6.68,6.68,0,0,0-2.94-1.64,14.58,14.58,0,0,0-3.74-.45,11.35,11.35,0,0,0-4.68,1,11.48,11.48,0,0,0-3.39,2.36,10.54,10.54,0,0,0-2.16,3.18,10.79,10.79,0,0,0-.92,3.41v25.17h-4.21V90a14.59,14.59,0,0,0-.67-4.75,7.57,7.57,0,0,0-1.9-3.06,7.11,7.11,0,0,0-2.94-1.65,13.47,13.47,0,0,0-3.78-.49,11,11,0,0,0-4.21.75,10.77,10.77,0,0,0-3.19,2,11.58,11.58,0,0,0-2.23,2.89,18,18,0,0,0-1.4,3.34v26.08H90.64v-38Z"/><path class="cls-1" d="M169.39,115.86a16.82,16.82,0,0,1-6.86-1.39,16.21,16.21,0,0,1-5.4-3.87,17.92,17.92,0,0,1-3.53-5.89,21.44,21.44,0,0,1-1.26-7.49V95.71a23,23,0,0,1,1.31-8,18.68,18.68,0,0,1,3.57-6.08,16,16,0,0,1,5.19-3.89,14.5,14.5,0,0,1,6.2-1.37,15.15,15.15,0,0,1,6.44,1.3,13.33,13.33,0,0,1,4.73,3.62,16.14,16.14,0,0,1,2.9,5.52,23.92,23.92,0,0,1,1,7v2.56H156.52v.81a18,18,0,0,0,.95,5.89,14.74,14.74,0,0,0,2.67,4.8,12.75,12.75,0,0,0,4.11,3.22,12,12,0,0,0,5.31,1.17,13.71,13.71,0,0,0,6-1.23,13.2,13.2,0,0,0,4.69-3.93l2.64,2a17.74,17.74,0,0,1-2.2,2.6,13,13,0,0,1-2.9,2.15,15.49,15.49,0,0,1-3.72,1.44A19,19,0,0,1,169.39,115.86ZM168.61,80a10.71,10.71,0,0,0-4.43.91,11.05,11.05,0,0,0-3.6,2.6A14,14,0,0,0,158,87.57a19.7,19.7,0,0,0-1.35,5.26h22.82v-.46a17.07,17.07,0,0,0-.78-4.62,12.41,12.41,0,0,0-2-4A10.25,10.25,0,0,0,173.29,81,10.09,10.09,0,0,0,168.61,80Zm4.68-18.43h5.1l-8.12,9.81h-3.7Z"/><path class="cls-1" d="M198.39,67.37v9.74h7.88v3.45h-7.88v25.35a10.75,10.75,0,0,0,.4,3.21,4.88,4.88,0,0,0,1.09,1.9,3.47,3.47,0,0,0,1.59.92,7.63,7.63,0,0,0,1.88.22,13.61,13.61,0,0,0,1.83-.12l1.58-.23.17,3.45a9.66,9.66,0,0,1-2,.44,20.78,20.78,0,0,1-2.48.16,11.05,11.05,0,0,1-3.32-.48,6,6,0,0,1-2.62-1.63,8.11,8.11,0,0,1-1.7-3.08,15.8,15.8,0,0,1-.62-4.76V80.56h-7V77.11h7V67.37Z"/><path class="cls-1" d="M229.71,115.86a16.81,16.81,0,0,1-6.85-1.39,16.11,16.11,0,0,1-5.4-3.87,17.75,17.75,0,0,1-3.53-5.89,21.45,21.45,0,0,1-1.27-7.49V95.71a22.8,22.8,0,0,1,1.32-8,18.68,18.68,0,0,1,3.57-6.08,16,16,0,0,1,5.19-3.89,14.5,14.5,0,0,1,6.2-1.37,15.1,15.1,0,0,1,6.43,1.3,13.15,13.15,0,0,1,4.73,3.62,15.81,15.81,0,0,1,2.9,5.52,23.59,23.59,0,0,1,1,7v2.56H216.85v.81a17.79,17.79,0,0,0,1,5.89,14.74,14.74,0,0,0,2.67,4.8,12.75,12.75,0,0,0,4.11,3.22,11.92,11.92,0,0,0,5.31,1.17,13.71,13.71,0,0,0,6-1.23,13.2,13.2,0,0,0,4.69-3.93l2.64,2a18.38,18.38,0,0,1-2.2,2.6,13.24,13.24,0,0,1-2.9,2.15,15.49,15.49,0,0,1-3.72,1.44A19,19,0,0,1,229.71,115.86ZM228.94,80a10.71,10.71,0,0,0-4.43.91,11.05,11.05,0,0,0-3.6,2.6,14,14,0,0,0-2.57,4.06A19.33,19.33,0,0,0,217,92.83H239.8v-.46a16.68,16.68,0,0,0-.77-4.62,12.24,12.24,0,0,0-2.06-4,9.76,9.76,0,0,0-8-3.79Zm4.68-18.43h5.09l-8.12,9.81H226.9Z"/><path class="cls-1" d="M249.86,95.57a23.26,23.26,0,0,1,1.21-7.66,18.1,18.1,0,0,1,3.43-6.07,15.74,15.74,0,0,1,5.34-4,16.48,16.48,0,0,1,7-1.44,16.7,16.7,0,0,1,7.05,1.44,15.53,15.53,0,0,1,5.36,4,17.73,17.73,0,0,1,3.41,6.07,23.53,23.53,0,0,1,1.2,7.66v1.16a23.53,23.53,0,0,1-1.2,7.66,17.73,17.73,0,0,1-3.41,6.07,15.37,15.37,0,0,1-5.34,4,17.82,17.82,0,0,1-14,0,15.63,15.63,0,0,1-5.36-4,18,18,0,0,1-3.45-6.07,23.26,23.26,0,0,1-1.21-7.66Zm4.22,1.16a20.84,20.84,0,0,0,.84,6,15.26,15.26,0,0,0,2.46,5,12.16,12.16,0,0,0,4,3.39,12.53,12.53,0,0,0,10.95,0,12.19,12.19,0,0,0,4-3.39,15.26,15.26,0,0,0,2.46-5,20.5,20.5,0,0,0,.85-6V95.57a20.27,20.27,0,0,0-.85-5.89,15.52,15.52,0,0,0-2.46-5,12.22,12.22,0,0,0-4-3.43A11.49,11.49,0,0,0,266.8,80a11.23,11.23,0,0,0-5.43,1.28,12.31,12.31,0,0,0-4,3.43,15.52,15.52,0,0,0-2.46,5,20.61,20.61,0,0,0-.84,5.89Z"/><path class="cls-1" d="M293.73,115.56V85h-5.66V77.52h5.66V75.94a17.48,17.48,0,0,1,1.12-6.49,12.4,12.4,0,0,1,3.27-4.75,14.4,14.4,0,0,1,5.24-2.9,23.37,23.37,0,0,1,7-1,28,28,0,0,1,5.77.58c1.85.39,3.77.88,5.76,1.49l-1.47,8.41-2-.57c-.68-.18-1.4-.36-2.17-.52a21.12,21.12,0,0,0-2.44-.39,27.74,27.74,0,0,0-2.85-.14,7.81,7.81,0,0,0-5.32,1.58,5.94,5.94,0,0,0-1.78,4.68v1.58h7.49V85h-7.49v30.59Zm32.94,0h-10.2v-38h10.2Z"/><path class="cls-1" d="M357.11,115.56a11.27,11.27,0,0,1-1-3.41,13.23,13.23,0,0,1-3.88,2.92,12.52,12.52,0,0,1-5.71,1.19,15.23,15.23,0,0,1-5.12-.84,12.6,12.6,0,0,1-4.11-2.36,11,11,0,0,1-2.73-3.6,10.74,10.74,0,0,1-1-4.59,12.18,12.18,0,0,1,1.11-5.31A10.33,10.33,0,0,1,338,95.62a16.22,16.22,0,0,1,5.5-2.46,31.07,31.07,0,0,1,7.65-.84h4.53V90.14a6.29,6.29,0,0,0-1.35-4.22,5.34,5.34,0,0,0-4.27-1.58,6.07,6.07,0,0,0-4,1.23A4.2,4.2,0,0,0,344.56,89H334.4a10.08,10.08,0,0,1,1.14-4.68,11.76,11.76,0,0,1,3.26-3.87,16.4,16.4,0,0,1,5.09-2.62,21.82,21.82,0,0,1,6.68-1,21.26,21.26,0,0,1,6.12.84,13.79,13.79,0,0,1,4.85,2.51,11.45,11.45,0,0,1,3.18,4.19,13.85,13.85,0,0,1,1.15,5.85v16.1c0,1.08,0,2,.1,2.9s.17,1.63.28,2.32a12.18,12.18,0,0,0,.46,1.87,10.93,10.93,0,0,0,.67,1.56v.6Zm-8.4-7.07a8.79,8.79,0,0,0,2.41-.31,9.22,9.22,0,0,0,2-.83,6.93,6.93,0,0,0,1.52-1.18,6.13,6.13,0,0,0,1-1.37V98.26h-4.18a12.33,12.33,0,0,0-3.48.44,6.61,6.61,0,0,0-2.43,1.23,4.93,4.93,0,0,0-1.4,1.86,5.85,5.85,0,0,0-.46,2.34,4.06,4.06,0,0,0,1.33,3.13A5.21,5.21,0,0,0,348.71,108.49Z"/><path class="cls-1" d="M408,96.89a31.9,31.9,0,0,1-.91,7.84,18.09,18.09,0,0,1-2.76,6.12,13,13,0,0,1-4.63,4,14.06,14.06,0,0,1-6.5,1.42,12.15,12.15,0,0,1-5.71-1.25,12.53,12.53,0,0,1-4.17-3.49l-.46,4h-9.14v-54h10.16V80.93a11.88,11.88,0,0,1,4-3,12.16,12.16,0,0,1,5.29-1.07,14,14,0,0,1,6.52,1.44,13,13,0,0,1,4.66,4A18,18,0,0,1,407,88.38a31.61,31.61,0,0,1,.91,7.77Zm-10.16-.74a27.73,27.73,0,0,0-.32-4.27,10.78,10.78,0,0,0-1.14-3.53A6.34,6.34,0,0,0,394.1,86a6.66,6.66,0,0,0-3.59-.88,7.55,7.55,0,0,0-4.18,1,6.74,6.74,0,0,0-2.5,2.93v15a6.94,6.94,0,0,0,2.5,3,7.69,7.69,0,0,0,4.25,1,6.77,6.77,0,0,0,3.54-.84,6.32,6.32,0,0,0,2.21-2.32,10.53,10.53,0,0,0,1.14-3.54,29.58,29.58,0,0,0,.32-4.48Z"/><path class="cls-1" d="M424.93,115.56h-10.2v-54h10.2Z"/><path class="cls-1" d="M450.8,116.26a20.63,20.63,0,0,1-7.92-1.44,17.29,17.29,0,0,1-5.94-3.94,16.73,16.73,0,0,1-3.73-5.85,19.9,19.9,0,0,1-1.28-7.19V96.47a24.16,24.16,0,0,1,1.24-7.93,18.42,18.42,0,0,1,3.55-6.2,16,16,0,0,1,5.59-4.06,17.89,17.89,0,0,1,7.37-1.46,18.12,18.12,0,0,1,7.24,1.35,14.44,14.44,0,0,1,5.26,3.8,16.18,16.18,0,0,1,3.2,5.89,25.83,25.83,0,0,1,1.07,7.66v4.32H442.23a10.33,10.33,0,0,0,1,3.38,8.44,8.44,0,0,0,4.69,4.25,10,10,0,0,0,3.55.6,12.66,12.66,0,0,0,5.14-1,10.38,10.38,0,0,0,4-3.21l5,5.59a15.1,15.1,0,0,1-5.52,4.72,18.88,18.88,0,0,1-4.2,1.55A21.06,21.06,0,0,1,450.8,116.26ZM449.64,85a7,7,0,0,0-2.9.58,6.42,6.42,0,0,0-2.14,1.62,8.51,8.51,0,0,0-1.46,2.48,14.83,14.83,0,0,0-.81,3.2h14.13v-.81A10.4,10.4,0,0,0,456,89.3a6,6,0,0,0-1.24-2.25,5.44,5.44,0,0,0-2.1-1.48A8,8,0,0,0,449.64,85Z"/><path class="cls-1" d="M57.57,88.52A30.94,30.94,0,1,1,88.51,57.58,31,31,0,0,1,57.57,88.52Zm0-58.58A27.64,27.64,0,1,0,85.21,57.58,27.67,27.67,0,0,0,57.57,29.94Z"/><path class="cls-1" d="M57.57,16.46a1.65,1.65,0,0,1-1.65-1.65V1.65a1.66,1.66,0,0,1,3.31,0V14.81A1.65,1.65,0,0,1,57.57,16.46Z"/><path class="cls-1" d="M57.57,115.15a1.65,1.65,0,0,1-1.65-1.65V100.34a1.66,1.66,0,0,1,3.31,0V113.5A1.65,1.65,0,0,1,57.57,115.15Z"/><path class="cls-1" d="M14.81,59.23H1.65a1.65,1.65,0,0,1,0-3.3H14.81a1.65,1.65,0,1,1,0,3.3Z"/><path class="cls-1" d="M113.5,59.23H100.34a1.65,1.65,0,0,1,0-3.3H113.5a1.65,1.65,0,1,1,0,3.3Z"/><path class="cls-1" d="M27.34,29a1.66,1.66,0,0,1-1.17-.48l-9.3-9.3a1.65,1.65,0,0,1,2.33-2.33l9.31,9.29A1.65,1.65,0,0,1,27.34,29Z"/><path class="cls-1" d="M18,98.77A1.65,1.65,0,0,1,16.87,96l9.3-9.31A1.65,1.65,0,1,1,28.51,89L19.2,98.29A1.66,1.66,0,0,1,18,98.77Z"/><path class="cls-1" d="M87.82,29a1.65,1.65,0,0,1-1.17-2.82L96,16.87a1.65,1.65,0,1,1,2.34,2.33L89,28.5A1.64,1.64,0,0,1,87.82,29Z"/><path class="cls-1" d="M56.53,74.7,42.76,56.35A2,2,0,0,1,46,54L56.2,67.6,70.66,44.1a2,2,0,0,1,3.41,2.1Z"/></g></g></svg>