<svg xmlns="http://www.w3.org/2000/svg" viewBox="0 0 78.24 41.24"><defs><style>.cls-1,.cls-2{fill:none;stroke:#cfd8dc;stroke-linecap:round;stroke-miterlimit:10;stroke-width:0.79px;}.cls-2{stroke-dasharray:1.69 2.54;}.cls-3{fill:#cfd8dc;}.cls-4{fill:#afbec5;}</style></defs><title>rain</title><g id="Calque_2" data-name="Calque 2"><g id="Calque_1-2" data-name="Calque 1"><line class="cls-1" x1="28.69" y1="19.16" x2="28.28" y2="19.84"/><line class="cls-2" x1="26.98" y1="22.02" x2="16.79" y2="39.07"/><line class="cls-1" x1="16.14" y1="40.16" x2="15.73" y2="40.84"/><line class="cls-1" x1="35.51" y1="19.16" x2="35.1" y2="19.84"/><line class="cls-2" x1="33.8" y1="22.02" x2="23.6" y2="39.07"/><line class="cls-1" x1="22.95" y1="40.16" x2="22.55" y2="40.84"/><line class="cls-1" x1="42.33" y1="19.16" x2="41.92" y2="19.84"/><line class="cls-2" x1="40.62" y1="22.02" x2="30.42" y2="39.07"/><line class="cls-1" x1="29.77" y1="40.16" x2="29.37" y2="40.84"/><line class="cls-1" x1="49.15" y1="19.16" x2="48.74" y2="19.84"/><line class="cls-2" x1="47.44" y1="22.02" x2="37.24" y2="39.07"/><line class="cls-1" x1="36.59" y1="40.16" x2="36.18" y2="40.84"/><line class="cls-1" x1="55.96" y1="19.16" x2="55.56" y2="19.84"/><line class="cls-2" x1="54.26" y1="22.02" x2="44.06" y2="39.07"/><line class="cls-1" x1="43.41" y1="40.16" x2="43" y2="40.84"/><line class="cls-1" x1="21.87" y1="19.16" x2="21.46" y2="19.84"/><line class="cls-2" x1="20.16" y1="22.02" x2="9.97" y2="39.07"/><line class="cls-1" x1="9.32" y1="40.16" x2="8.91" y2="40.84"/><path id="_Tracé_" data-name="&lt;Tracé&gt;" class="cls-3" d="M69.59,19.87c-2-.65-3.68-1.37-5.27,0a15.62,15.62,0,0,0,0-6.77c-.65-2.19-2.44-4.19-4.71-4.37a4.21,4.21,0,0,0-4,2.48A3.17,3.17,0,0,0,54,9.15a3.22,3.22,0,0,0-4,.95,2.77,2.77,0,0,0-1.5-3.42c-1.28-.51-1.91-.56-2.44.72A16.65,16.65,0,0,0,26.37,1.11a16.74,16.74,0,0,0-9.65,18.38,3.65,3.65,0,0,0-4.18-2.64,3.87,3.87,0,0,0-2.87,4.23c-.58-1.42-2.48-1.83-3.94-1.39a20.86,20.86,0,0,0-4,2.22A9.82,9.82,0,0,1,0,22.69c6.06,0,9.27,1.1,13.4.72A4.62,4.62,0,0,0,17,24a7.42,7.42,0,0,1,2.2-.44,5.74,5.74,0,0,1,1.92.79A7.76,7.76,0,0,0,29,23.78a19.25,19.25,0,0,0,15.32-.28c1.23,1.25,3.59,1,4.94-.07A24.15,24.15,0,0,0,66.62,23c2.64,1.11,4.93-.32,11.62-.32Z"/><path id="_Tracé_2" data-name="&lt;Tracé&gt;" class="cls-4" d="M61.88,20.56c-1.33-.52-3.55-.2-3.87,1.19a2.12,2.12,0,0,0-2.68-2.59,1.62,1.62,0,0,0-1.62-1.75,5.62,5.62,0,0,0,.8-1.85,1.92,1.92,0,0,0-.6-1.84,1,1,0,0,0-1.55.35,6.67,6.67,0,0,0-8.13-2.59A6.43,6.43,0,0,0,40.62,19a1.25,1.25,0,0,0-1,1.76,1.29,1.29,0,0,0-1.56.47,1.19,1.19,0,0,0,0,1.09,2.09,2.09,0,0,0-1.78-.48,3.17,3.17,0,0,0-2,1.65,8.19,8.19,0,0,0-.75,2.37c-1.87-.94-4.13-.33-6.08.43a14.93,14.93,0,0,1-5.68,1.4c8.88,1.5,8.88,1.5,10.83.72a18.44,18.44,0,0,0,13.61.5,2.57,2.57,0,0,0,2.56.92c1-.12,1.87-.5,2.83-.58.76-.05,1.52.09,2.28,0a1.91,1.91,0,0,0,1.78-.9A6.61,6.61,0,0,0,60.5,29a2.35,2.35,0,0,0,1.4-.87,1.25,1.25,0,0,0,.17-.84A5.34,5.34,0,0,0,63.87,24,3.45,3.45,0,0,0,61.88,20.56Z"/></g></g></svg>